<svg width="120" height="75" viewBox="0 0 120 75" fill="none" xmlns="http://www.w3.org/2000/svg">
<path d="M59 0H60V75H59V0Z" fill="black"/>
<g clip-path="url(#clip0_2803_2)">
<path d="M17.3457 40.0303V23.8788H30.1275V27.4909H22.3851V30.0273H28.9578V33.6394H22.3851V36.2758H30.1275V40.0303H17.3457Z" fill="black"/>
<path d="M40.8183 40.0303L35.8365 31.4728V40.0303H31.085V23.8516H35.8365L41.3001 32.4485V23.8516H46.2122V40.0303H40.8183Z" fill="black"/>
<path d="M106.455 26.6727V24.403H107.461C107.617 24.3962 107.773 24.4167 107.922 24.4636C108.027 24.5051 108.116 24.5809 108.173 24.6788C108.238 24.7843 108.272 24.9063 108.27 25.0303C108.274 25.1811 108.217 25.3272 108.113 25.4363C107.981 25.5602 107.811 25.6351 107.631 25.6484C107.696 25.6773 107.758 25.715 107.813 25.7606C107.908 25.8507 107.992 25.9525 108.061 26.0636L108.455 26.6697H108.089L107.785 26.1969C107.697 26.0616 107.624 25.9606 107.567 25.8939C107.525 25.8358 107.474 25.7847 107.416 25.7424C107.374 25.7148 107.328 25.6943 107.279 25.6818C107.224 25.6767 107.168 25.6767 107.113 25.6818H106.755V26.6878H106.452L106.455 26.6727ZM106.758 25.406H107.404C107.512 25.41 107.621 25.3957 107.725 25.3636C107.797 25.339 107.859 25.291 107.901 25.2272C107.94 25.167 107.961 25.0964 107.961 25.0242C107.963 24.9745 107.953 24.9251 107.933 24.8796C107.913 24.834 107.883 24.7934 107.846 24.7606C107.741 24.6834 107.612 24.6458 107.482 24.6545H106.755V25.406H106.758Z" fill="black"/>
<path d="M107.349 27.4546C106.979 27.4546 106.617 27.3447 106.309 27.1389C106.001 26.9332 105.761 26.6407 105.619 26.2985C105.477 25.9563 105.44 25.5798 105.513 25.2165C105.585 24.8532 105.763 24.5195 106.025 24.2576C106.287 23.9957 106.621 23.8174 106.984 23.7451C107.347 23.6728 107.724 23.7099 108.066 23.8517C108.408 23.9934 108.701 24.2334 108.906 24.5414C109.112 24.8494 109.222 25.2114 109.222 25.5818C109.221 26.0783 109.024 26.5541 108.673 26.9052C108.322 27.2562 107.846 27.4538 107.349 27.4546ZM107.349 24.0212C107.041 24.0212 106.739 24.1128 106.482 24.2842C106.226 24.4557 106.026 24.6994 105.907 24.9846C105.789 25.2698 105.758 25.5836 105.819 25.8863C105.879 26.189 106.028 26.4671 106.246 26.6853C106.464 26.9036 106.742 27.0522 107.045 27.1124C107.348 27.1727 107.661 27.1418 107.947 27.0236C108.232 26.9055 108.475 26.7055 108.647 26.4489C108.818 26.1922 108.91 25.8905 108.91 25.5818C108.908 25.1687 108.743 24.773 108.451 24.4812C108.158 24.1893 107.762 24.0251 107.349 24.0243V24.0212Z" fill="black"/>
<path d="M85.3427 40.0303L80.3609 31.4728V40.0303H75.6124L75.6094 23.8516H80.3609L85.8276 32.4485V23.8516H90.7366V40.0303H85.3427Z" fill="black"/>
<path d="M62.0098 40.0303V23.8788H74.7916V27.4909H67.0492V30.0273H73.6219V33.6394H67.0492V36.2758H74.7916V40.0303H62.0098Z" fill="black"/>
<path fill-rule="evenodd" clip-rule="evenodd" d="M16.4641 30.0727C16.0277 25.8485 13.2217 23 8.19744 23C3.60956 23 0.015625 26.3091 0.015625 31.6303C0.015625 36.9515 3.28835 40.3061 8.72168 40.3061C13.0611 40.3061 16.0974 37.7576 16.5732 33.5152H11.3944C11.1884 35.0909 10.3671 36.3 8.63078 36.3C5.9035 36.3 5.38835 34.1303 5.38835 31.8242C5.38835 28.6515 6.53078 27.0303 8.41865 27.0303C10.1096 27.0303 11.1823 28.3697 11.3399 30.0818H16.4641V30.0727Z" fill="black"/>
<path d="M61.325 23.8424H46.9766V27.9273H51.522V44.1212C51.7318 43.065 52.2385 42.0905 52.9826 41.3121C53.4546 40.7804 54.0378 40.359 54.6909 40.0778C55.3439 39.7966 56.0508 39.6624 56.7614 39.6848H56.7947V27.9273H61.319L61.325 23.8424Z" fill="black"/>
<path d="M56.5546 40.3727C54.6243 40.3727 52.9971 41.9909 52.6152 44.1242H56.8152V40.3909H56.791C56.7061 40.3818 56.6334 40.3727 56.5546 40.3727Z" fill="black"/>
<path d="M104.391 40.0303H91.6094V23.8788H104.391V27.4909H96.6518V30.0303H103.225V33.6394H96.6518V36.2758H104.391C104.391 36.2758 104.391 39.7697 104.391 40.0303Z" fill="black"/>
<path d="M65.4697 45.3334C65.4697 47.4273 63.897 49.197 62.0394 49.197C60.4515 49.197 59.3818 48.0304 59.3818 46.2758C59.3818 44.097 60.9303 42.4546 62.994 42.4546C64.4121 42.4516 65.4697 43.6728 65.4697 45.3334ZM60.3182 46.4304C60.3182 47.694 61.0273 48.5243 62.1121 48.5243C63.4788 48.5243 64.5364 47.091 64.5364 45.2243C64.5364 43.9455 63.8909 43.1304 62.8727 43.1304C61.4212 43.1243 60.3212 44.5425 60.3212 46.4273L60.3182 46.4304Z" fill="black"/>
<path d="M70.9513 43.8182H70.7179C70.7141 43.733 70.6932 43.6494 70.6565 43.5724C70.6197 43.4954 70.5678 43.4266 70.5039 43.3701C70.44 43.3135 70.3654 43.2704 70.2845 43.2433C70.2037 43.2162 70.1181 43.2056 70.0331 43.2122C69.74 43.2205 69.4582 43.3272 69.2331 43.5152C69.0531 43.6442 68.8998 43.8068 68.7816 43.994C68.5876 44.297 68.524 44.4728 68.3816 45.2061L67.621 49.0819H66.6543L67.6876 43.8182L67.7513 43.5516C67.7672 43.4727 67.7763 43.3926 67.7785 43.3122C67.7785 43.0091 67.6604 42.9182 67.3149 42.9182H67.224L67.2876 42.6364L68.927 42.4546L68.6543 43.8182C69.0664 42.9607 69.7634 42.4546 70.524 42.4546C70.7841 42.4575 71.0401 42.5196 71.2725 42.6364L70.9513 43.8182Z" fill="black"/>
<path d="M72.0754 51.0636C72.0475 51.1887 72.0262 51.3151 72.0118 51.4424C72.0118 51.6818 72.0633 51.7242 72.4361 51.8364L72.3845 52.0606H70.4209L70.4603 51.8364C70.5539 51.8312 70.6456 51.8075 70.73 51.7667C70.9361 51.6697 70.9997 51.5697 71.0664 51.2333L72.5118 43.8182L72.5633 43.5515C72.5845 43.4736 72.5937 43.3928 72.5906 43.3121C72.5906 43.0091 72.4876 42.9182 72.1391 42.9182H72.0482L72.0997 42.6364L73.7512 42.4545L73.5421 43.4758C73.6779 43.299 73.8335 43.1384 74.0057 42.997C74.4824 42.6491 75.0551 42.4575 75.6451 42.4485C76.9482 42.4485 77.8906 43.4879 77.8906 44.9364C77.8906 47.3939 75.9148 49.1788 73.1815 49.1788C72.9349 49.1796 72.6886 49.1603 72.4451 49.1212L72.0754 51.0636ZM72.6815 48.5061C72.8754 48.5061 73.0421 48.5061 73.1845 48.5061C75.4542 48.5061 76.8603 47.1727 76.8603 45.0364C76.8603 43.8424 76.2542 43.1121 75.2603 43.1121C74.5785 43.1121 73.9573 43.4909 73.4027 44.2212L72.5633 48.4909H72.6785L72.6815 48.5061Z" fill="black"/>
<path d="M85.0782 45.3334C85.0782 47.4273 83.5025 49.197 81.6449 49.197C80.057 49.197 78.9873 48.0304 78.9873 46.2758C78.9873 44.097 80.5358 42.4546 82.5994 42.4546C84.0206 42.4516 85.0782 43.6728 85.0782 45.3334ZM79.9267 46.4304C79.9267 47.694 80.6358 48.5243 81.7206 48.5243C83.0873 48.5243 84.1449 47.091 84.1449 45.2243C84.1449 43.9455 83.4994 43.1304 82.4812 43.1304C81.0267 43.1243 79.9297 44.5425 79.9297 46.4273L79.9267 46.4304Z" fill="black"/>
<path d="M90.5604 43.8182H90.3301C90.3263 43.733 90.3054 43.6494 90.2687 43.5724C90.2319 43.4954 90.18 43.4266 90.1161 43.3701C90.0522 43.3135 89.9776 43.2704 89.8967 43.2433C89.8159 43.2162 89.7304 43.2056 89.6453 43.2122C89.3522 43.2207 89.0705 43.3274 88.8453 43.5152C88.6638 43.6446 88.5094 43.8083 88.3907 43.997C88.1968 44.3 88.1332 44.4758 87.9907 45.2091L87.2301 49.0849H86.2695L87.2968 43.8182L87.3604 43.5516C87.3749 43.4725 87.383 43.3925 87.3847 43.3122C87.3847 43.0091 87.2695 42.9182 86.921 42.9182H86.8301L86.8938 42.6364L88.5332 42.4546L88.2665 43.8182C88.6786 42.9607 89.3756 42.4546 90.1362 42.4546C90.3963 42.4575 90.6523 42.5196 90.8847 42.6364L90.5604 43.8182Z" fill="black"/>
<path d="M92.1452 42.9697C92.8476 42.6125 93.627 42.4335 94.4149 42.4485C95.7452 42.4485 96.4785 42.9273 96.4785 43.797C96.4745 43.9764 96.4532 44.155 96.4149 44.3303L95.8088 47.4909C95.7671 47.666 95.7418 47.8445 95.7331 48.0243C95.7246 48.0849 95.7288 48.1467 95.7452 48.2057C95.7617 48.2647 95.7902 48.3196 95.8289 48.3671C95.8675 48.4146 95.9156 48.4536 95.97 48.4817C96.0245 48.5098 96.0841 48.5263 96.1452 48.5303C96.3391 48.5303 96.4816 48.4606 96.8301 48.1788L97.0513 48.4182C96.5604 48.9243 96.1088 49.1909 95.6967 49.1909C95.0907 49.1909 94.7422 48.7818 94.7179 48.0818C94.431 48.4298 94.0704 48.7098 93.6622 48.9016C93.254 49.0934 92.8083 49.1922 92.3573 49.1909C91.3634 49.1909 90.6543 48.5303 90.6543 47.6182C90.6543 45.9182 92.4725 44.7243 95.4149 44.5273C95.457 44.367 95.4784 44.2021 95.4785 44.0364C95.4785 43.4606 94.9361 43.094 94.0604 43.094C93.7292 43.0894 93.4005 43.1512 93.0937 43.2758C92.7081 43.4175 92.3779 43.6787 92.1513 44.0212H91.9179L92.1452 42.9697ZM94.0179 45.3333C92.521 45.7121 91.6695 46.4697 91.6695 47.4273C91.6717 47.5594 91.7005 47.6897 91.754 47.8105C91.8076 47.9313 91.8848 48.0401 91.9812 48.1305C92.0775 48.2209 92.191 48.2911 92.315 48.3369C92.4389 48.3826 92.5708 48.4031 92.7028 48.397C93.1268 48.382 93.5423 48.2734 93.9195 48.079C94.2967 47.8847 94.6263 47.6093 94.8846 47.2727L95.2967 45.1243C94.867 45.1707 94.4401 45.2405 94.0179 45.3333Z" fill="black"/>
<path d="M100.466 42.5485H101.769L101.678 43.0122H100.375L99.5633 47.1516C99.5084 47.4108 99.478 47.6746 99.4724 47.9394C99.4681 48.0222 99.4817 48.105 99.5122 48.1821C99.5427 48.2592 99.5895 48.3288 99.6492 48.3863C99.709 48.4438 99.7804 48.4877 99.8586 48.5152C99.9369 48.5426 100.02 48.553 100.103 48.5455C100.324 48.5586 100.544 48.5018 100.732 48.3833C100.919 48.2648 101.065 48.0905 101.148 47.8849H101.354L101.151 48.9697C100.747 49.1357 100.313 49.2172 99.8754 49.2091C98.933 49.2091 98.4814 48.8303 98.4814 48.0697C98.4873 47.7902 98.5218 47.512 98.5845 47.2394L99.4118 43.0243H98.6511L98.7421 42.5607C98.9414 42.578 99.1418 42.5436 99.3239 42.4607C99.5421 42.3637 99.6966 42.0667 99.8027 41.5516L99.9814 40.6425L100.891 40.4031L100.466 42.5485Z" fill="black"/>
<path d="M112.106 45.3334C112.106 47.4273 110.53 49.197 108.672 49.197C107.084 49.197 106.015 48.0304 106.015 46.2758C106.015 44.097 107.563 42.4546 109.627 42.4546C111.045 42.4516 112.106 43.6728 112.106 45.3334ZM106.954 46.4304C106.954 47.694 107.663 48.5243 108.748 48.5243C110.115 48.5243 111.172 47.091 111.172 45.2243C111.172 43.9455 110.527 43.1304 109.509 43.1304C108.054 43.1243 106.957 44.5425 106.957 46.4273L106.954 46.4304Z" fill="black"/>
<path d="M115.36 43.4212C115.969 42.809 116.794 42.4607 117.657 42.4515C118.715 42.4515 119.424 43.0576 119.424 43.9667C119.401 44.3118 119.349 44.6543 119.269 44.9909L118.83 47.2515C118.764 47.5284 118.721 47.8101 118.7 48.094C118.7 48.1495 118.711 48.2046 118.732 48.2559C118.753 48.3072 118.785 48.3537 118.824 48.3929C118.864 48.432 118.91 48.463 118.962 48.484C119.013 48.505 119.068 48.5156 119.124 48.5152C119.385 48.4891 119.628 48.3697 119.809 48.1788L120.003 48.4303C119.88 48.5862 119.737 48.724 119.575 48.8394C119.277 49.0522 118.923 49.1743 118.557 49.1909C118.439 49.1914 118.322 49.1671 118.213 49.1197C118.104 49.0722 118.007 49.0026 117.927 48.9154C117.847 48.8281 117.786 48.725 117.748 48.6128C117.709 48.5006 117.695 48.3817 117.706 48.2637C117.718 48.0363 117.748 47.8103 117.797 47.5879L118.324 44.8606C118.376 44.6256 118.407 44.3862 118.415 44.1455C118.411 43.9976 118.377 43.852 118.316 43.7177C118.254 43.5833 118.165 43.4631 118.055 43.3643C117.945 43.2656 117.815 43.1904 117.675 43.1433C117.535 43.0963 117.387 43.0785 117.239 43.0909C116.756 43.1178 116.294 43.3007 115.924 43.6121C115.638 43.8358 115.382 44.0955 115.163 44.3849L114.254 49.0909H113.272L114.312 43.8182L114.363 43.5515C114.379 43.4726 114.388 43.3926 114.391 43.3121C114.391 43.0091 114.275 42.9182 113.939 42.9182H113.845L113.897 42.6364L115.548 42.4546L115.36 43.4212Z" fill="black"/>
<path d="M103.785 47.1516L103.682 47.6576C103.662 47.7501 103.653 47.8448 103.658 47.9394C103.658 48.3061 103.812 48.5303 104.07 48.5303C104.322 48.4904 104.556 48.3729 104.739 48.194L104.906 48.4061C104.738 48.6241 104.528 48.8061 104.289 48.9414C104.05 49.0768 103.785 49.1626 103.512 49.194C102.997 49.194 102.648 48.8 102.648 48.197C102.658 47.9032 102.701 47.6115 102.776 47.3273L103.461 43.8182L103.512 43.5516C103.533 43.4736 103.543 43.3929 103.539 43.3122C103.539 43.0091 103.436 42.9182 103.088 42.9182H102.997L103.048 42.6364L104.7 42.4546L103.785 47.1516Z" fill="black"/>
<path d="M56.0633 48.7334C53.9876 48.7334 52.5148 47.2183 52.5148 45.097C52.5154 44.7667 52.5458 44.4371 52.6057 44.1122C52.9967 41.991 54.6239 40.3607 56.5451 40.3607C56.6239 40.3607 56.6997 40.3607 56.7724 40.3607H56.7967C57.7057 40.4455 58.3118 40.9152 58.3118 41.5728C58.3145 41.6521 58.2996 41.731 58.2682 41.8038C58.2368 41.8767 58.1896 41.9416 58.13 41.994L58.3118 42.191L59.4603 41.091C58.8542 40.1183 58.033 39.697 56.8027 39.688H56.7694C56.0587 39.6655 55.3518 39.7997 54.6988 40.0809C54.0458 40.3621 53.4626 40.7835 52.9906 41.3152C52.2469 42.0928 51.7403 43.0661 51.53 44.1213C51.4608 44.4605 51.4243 44.8055 51.4209 45.1516C51.4209 46.5698 51.9512 47.7516 52.936 48.5243C53.7239 49.1577 54.6391 49.4334 55.9664 49.4334C56.705 49.466 57.4415 49.3314 58.1209 49.0395L58.3906 47.7213H58.133C57.83 48.3819 57.1209 48.7334 56.0633 48.7334Z" fill="black"/>
<path d="M105.057 39.9849C105.054 40.2311 104.96 40.4674 104.791 40.647C104.623 40.8266 104.393 40.9364 104.148 40.9546C104.066 40.9547 103.985 40.9381 103.909 40.906C103.834 40.8738 103.766 40.8267 103.709 40.7675C103.653 40.7083 103.608 40.6383 103.58 40.5616C103.551 40.4849 103.538 40.4031 103.542 40.3213C103.547 40.0759 103.642 39.8411 103.81 39.6621C103.978 39.4831 104.206 39.3725 104.451 39.3516C104.534 39.3478 104.616 39.3618 104.694 39.3926C104.771 39.4235 104.84 39.4705 104.898 39.5305C104.955 39.5905 104.999 39.6621 105.026 39.7405C105.054 39.8188 105.064 39.9022 105.057 39.9849Z" fill="black"/>
</g>
<defs>
<clipPath id="clip0_2803_2">
<rect width="120" height="30" fill="white" transform="translate(0 23)"/>
</clipPath>
</defs>
</svg>
